<svg id="visual" viewBox="0 0 1908 930" width="1908" height="930" xmlns="http://www.w3.org/2000/svg" xmlns:xlink="http://www.w3.org/1999/xlink" version="1.1"><path d="M373 0L374.3 19.3C375.7 38.7 378.3 77.3 355 116.2C331.7 155 282.3 194 247.2 232.8C212 271.7 191 310.3 193.2 349C195.3 387.7 220.7 426.3 256.8 465C293 503.7 340 542.3 370 581.2C400 620 413 659 394.5 697.8C376 736.7 326 775.3 280.3 814C234.7 852.7 193.3 891.3 172.7 910.7L152 930L0 930L0 910.7C0 891.3 0 852.7 0 814C0 775.3 0 736.7 0 697.8C0 659 0 620 0 581.2C0 542.3 0 503.7 0 465C0 426.3 0 387.7 0 349C0 310.3 0 271.7 0 232.8C0 194 0 155 0 116.2C0 77.3 0 38.7 0 19.3L0 0Z" fill="#D64949" stroke-linecap="round" stroke-linejoin="miter"></path></svg>